<?xml version="1.0" encoding="UTF-8"?>
<svg width="264px" height="94px" viewBox="0 0 264 94" version="1.1" xmlns="http://www.w3.org/2000/svg" xmlns:xlink="http://www.w3.org/1999/xlink">
    <!-- Generator: Sketch 46.2 (44496) - http://www.bohemiancoding.com/sketch -->
    <title>naob</title>
    <desc>Created with Sketch.</desc>
    <defs></defs>
    <g id="Page-1" stroke="none" stroke-width="1" fill="none" fill-rule="evenodd">
        <g id="naob" fill-rule="nonzero">
            <path d="M16.12,10.133 C17.877,10.133 21.391,10.344 24.905,10.344 C26.311,10.344 27.506,10.344 28.068,10.274 C28.349,10.977 28.771,11.751 30.598,14.07 C37.767,23.066 52.175,40.636 55.548,44.572 C55.689,44.642 55.759,44.572 55.829,44.502 C55.829,34.873 55.899,21.731 55.548,16.67 C55.407,14.632 54.986,13.508 52.877,12.945 C51.612,12.593 50.066,12.312 48.168,12.101 C47.887,11.821 47.958,10.344 48.168,10.133 C49.996,10.133 53.229,10.344 57.516,10.344 C59.906,10.344 64.052,10.133 64.966,10.133 C65.247,10.344 65.247,11.821 64.966,12.101 C63.701,12.312 62.787,12.523 61.874,12.804 C60.047,13.437 59.625,14.701 59.484,16.599 C59.063,22.011 59.133,31.007 58.922,44.29 C58.922,47.523 58.992,51.6 59.063,53.919 C58.29,53.85 55.057,53.85 54.213,53.919 C50.488,48.577 31.161,24.4 26.943,19.129 C26.873,19.059 26.662,19.129 26.662,19.199 C26.521,26.438 26.521,42.885 26.732,46.82 C26.873,49.632 27.787,50.615 29.614,51.037 C30.668,51.389 32.074,51.529 33.831,51.74 C34.112,52.021 33.901,53.497 33.69,53.777 C32.003,53.777 28.841,53.566 24.905,53.566 C20.618,53.566 17.947,53.777 16.471,53.777 C16.26,53.566 16.26,51.951 16.471,51.74 C18.017,51.599 19.141,51.388 20.196,51.107 C21.813,50.615 22.726,49.702 22.867,46.961 C23.148,43.307 23.359,31.851 23.499,17.091 C23.499,16.037 23.148,14.49 21.602,13.648 C20.267,12.734 18.721,12.382 15.979,12.101 C15.768,11.891 15.838,10.344 16.12,10.133 Z" id="Shape" fill="#152C4C"></path>
            <path d="M73.191,45.204 C76.775,36.7 83.382,18.777 84.928,14.279 C85.49,12.803 85.982,11.258 86.123,10.273 C86.404,10.273 87.248,10.343 88.442,10.343 C89.848,10.343 90.551,10.273 90.761,10.273 C91.042,11.328 91.394,12.592 91.886,13.928 C93.292,17.934 101.093,40.213 103.553,46.046 C105.591,50.755 106.083,51.107 111.143,51.739 C111.424,51.95 111.213,53.496 111.002,53.777 C109.175,53.707 105.59,53.566 102.428,53.566 C98.984,53.566 94.697,53.707 93.221,53.777 C93.01,53.496 92.87,52.019 93.151,51.739 C94.697,51.528 95.963,51.317 97.017,50.966 C97.93,50.545 98,49.843 97.79,49.21 C96.947,46.188 94.838,40.284 93.573,37.121 C93.503,36.91 93.081,36.63 92.94,36.63 C91.956,36.56 89.497,36.63 86.334,36.63 C81.836,36.63 81.344,36.56 80.501,36.63 C80.22,36.63 79.868,37.051 79.798,37.262 C78.392,41.058 76.143,46.961 76.003,48.648 C75.933,49.843 76.073,50.616 78.252,51.178 C79.095,51.389 80.29,51.6 81.626,51.74 C81.836,52.021 81.696,53.497 81.485,53.777 C80.009,53.777 76.424,53.566 72.489,53.566 C68.483,53.566 66.304,53.777 64.968,53.777 C64.687,53.497 64.687,52.021 64.968,51.74 C70.028,51.107 70.872,50.615 73.191,45.204 Z M86.615,17.653 C85.42,21.167 82.539,29.109 81.344,32.834 C81.344,33.115 81.414,33.256 81.625,33.326 C82.328,33.396 84.577,33.396 87.248,33.396 C88.935,33.396 91.254,33.396 91.956,33.326 C92.097,33.326 92.308,33.045 92.167,32.764 C90.761,28.407 88.091,20.606 86.966,17.583 C86.896,17.583 86.685,17.513 86.615,17.653 Z" id="Shape" fill="#152C4C"></path>
            <path d="M118.736,48.437 C114.519,43.798 112.692,37.895 112.692,31.57 C112.692,26.369 114.238,21.871 117.049,18.006 C120.914,12.664 128.575,9.08 135.814,9.08 C150.15,9.08 157.391,19.552 157.391,31.008 C157.391,37.193 155.985,41.62 153.104,45.627 C148.747,51.671 141.649,54.833 134.621,54.833 C127.873,54.832 122.391,52.373 118.736,48.437 Z M144.811,49.28 C149.168,45.765 150.715,39.932 150.715,33.467 C150.715,25.876 148.186,18.568 142.632,14.701 C140.102,12.944 137.08,11.89 133.425,11.89 C130.965,11.89 128.857,12.452 127.1,13.436 C121.969,16.457 119.579,22.784 119.579,29.952 C119.579,37.332 122.32,45.345 128.505,49.35 C130.965,50.896 133.706,51.74 137.291,51.74 C140.243,51.74 142.984,50.826 144.811,49.28 Z" id="Shape" fill="#152C4C"></path>
            <path d="M163.578,10.133 C165.195,10.133 167.584,10.344 171.661,10.344 C175.736,10.344 178.408,10.203 182.976,10.203 C187.754,10.203 195.345,11.75 195.345,20.043 C195.345,24.049 192.603,27.353 188.527,29.039 C188.386,29.109 188.386,29.25 188.527,29.32 C194.009,30.585 198.437,33.959 198.437,40.143 C198.437,45.976 194.994,49.913 189.652,52.232 C186.42,53.636 182.484,53.989 178.758,53.989 C175.595,53.989 167.373,53.636 162.734,53.777 C162.382,53.566 162.312,51.951 162.665,51.74 C163.93,51.599 165.968,51.459 167.163,51.178 C168.709,50.756 169.201,50.124 169.412,47.594 C169.553,45.345 169.553,39.159 169.553,31.64 C169.553,22.855 169.623,18.286 169.483,15.686 C169.414,13.718 168.78,13.085 167.586,12.734 C166.603,12.453 164.845,12.242 163.51,12.101 C163.227,11.891 163.297,10.273 163.578,10.133 Z M176.229,12.874 C175.949,13.015 175.667,13.647 175.667,13.999 C175.598,16.037 175.456,23.486 175.456,28.477 C175.456,28.618 175.667,28.829 175.809,28.829 C176.581,28.899 178.199,28.97 180.165,28.97 C183.609,28.97 185.016,28.618 185.857,28.126 C188.107,26.791 189.161,24.331 189.161,21.59 C189.161,15.476 185.366,12.664 178.689,12.664 C177.916,12.663 176.932,12.733 176.229,12.874 Z M191.902,41.689 C191.902,35.012 187.123,31.358 179.181,31.358 C178.126,31.358 176.299,31.358 175.806,31.499 C175.665,31.499 175.454,31.64 175.454,31.78 C175.454,36.208 175.454,44.782 175.665,47.664 C175.806,48.577 176.438,49.843 177.282,50.334 C178.477,51.107 181.077,51.318 182.694,51.318 C188.316,51.318 191.902,48.226 191.902,41.689 Z" id="Shape" fill="#152C4C"></path>
            <path d="M1.54,79.952 L3.938,79.952 C5.847,79.952 7.401,80.206 8.904,81.489 C10.357,82.739 11.015,84.445 11.015,86.337 C11.015,88.195 10.339,89.834 8.937,91.084 C7.417,92.436 5.896,92.688 3.903,92.688 L1.54,92.688 L1.54,79.952 Z M3.989,91.371 C5.543,91.371 6.844,91.15 8.01,90.055 C9.057,89.075 9.597,87.741 9.597,86.321 C9.597,84.87 9.04,83.467 7.942,82.505 C6.776,81.476 5.493,81.273 3.989,81.273 L2.959,81.273 L2.959,91.375 L3.989,91.375 L3.989,91.371 Z" id="Shape" fill="#000000"></path>
            <polygon id="Shape" fill="#000000" points="12.992 79.952 19.596 79.952 19.596 81.269 14.41 81.269 14.41 85.052 19.444 85.052 19.444 86.369 14.41 86.369 14.41 91.369 19.596 91.369 19.596 92.686 12.992 92.686"></polygon>
            <polygon id="Shape" fill="#000000" points="25.39 92.688 23.971 92.688 23.971 81.27 20.897 81.27 20.897 79.954 28.498 79.954 28.498 81.27 25.39 81.27"></polygon>
            <polygon id="Shape" fill="#000000" points="35.236 79.412 45.168 89.816 45.168 79.952 46.587 79.952 46.587 93.264 36.655 82.875 36.655 92.687 35.236 92.687"></polygon>
            <path d="M61.874,86.337 C61.874,90.003 58.868,92.908 55.236,92.908 C51.604,92.908 48.598,90.003 48.598,86.337 C48.598,82.69 51.604,79.733 55.236,79.733 C58.868,79.732 61.874,82.688 61.874,86.337 Z M50.016,86.32 C50.016,89.191 52.347,91.591 55.236,91.591 C58.124,91.591 60.455,89.194 60.455,86.32 C60.455,83.431 58.158,81.049 55.236,81.049 C52.314,81.049 50.016,83.432 50.016,86.32 Z" id="Shape" fill="#000000"></path>
            <path d="M65.217,92.688 L63.798,92.688 L63.798,79.952 L65.639,79.952 C68.055,79.952 70.301,80.594 70.301,83.466 C70.301,85.425 69.068,86.811 67.108,86.981 L71.162,92.69 L69.422,92.69 L65.57,87.098 L65.216,87.098 L65.217,92.688 L65.217,92.688 Z M65.217,85.848 L65.656,85.848 C67.261,85.848 68.883,85.543 68.883,83.569 C68.883,81.473 67.346,81.27 65.64,81.27 L65.218,81.27 L65.217,85.848 L65.217,85.848 Z" id="Shape" fill="#000000"></path>
            <path d="M78.73,82.436 C78.223,81.557 77.615,81.05 76.534,81.05 C75.402,81.05 74.423,81.862 74.423,83.028 C74.423,84.126 75.555,84.632 76.416,85.02 L77.261,85.393 C78.916,86.12 80.318,86.946 80.318,88.973 C80.318,91.202 78.527,92.91 76.315,92.91 C74.271,92.91 72.751,91.593 72.346,89.616 L73.731,89.227 C73.917,90.528 74.914,91.591 76.282,91.591 C77.65,91.591 78.9,90.543 78.9,89.108 C78.9,87.623 77.734,87.116 76.552,86.576 L75.775,86.237 C74.289,85.561 73.005,84.8 73.005,82.977 C73.005,81 74.677,79.733 76.569,79.733 C77.988,79.733 79.187,80.461 79.863,81.711 L78.73,82.436 Z" id="Shape" fill="#000000"></path>
            <polygon id="Shape" fill="#000000" points="89.236 79.952 91.145 79.952 85.165 85.881 91.348 92.69 89.389 92.69 84.169 86.844 83.815 87.199 83.815 92.687 82.396 92.687 82.396 79.952 83.815 79.952 83.815 85.408"></polygon>
            <polygon id="Shape" fill="#000000" points="92.715 79.952 99.319 79.952 99.319 81.269 94.133 81.269 94.133 85.052 99.167 85.052 99.167 86.369 94.133 86.369 94.133 91.369 99.319 91.369 99.319 92.686 92.715 92.686 92.715 79.952"></polygon>
            <path d="M108.845,89.073 L107.308,92.687 L105.754,92.687 L111.632,79.342 L117.358,92.687 L115.787,92.687 L114.284,89.073 L108.845,89.073 Z M111.599,82.655 L109.42,87.756 L113.728,87.756 L111.599,82.655 Z" id="Shape" fill="#000000"></path>
            <polygon id="Shape" fill="#000000" points="125.584 79.952 127.493 79.952 121.513 85.881 127.696 92.69 125.737 92.69 120.517 86.844 120.163 87.199 120.163 92.687 118.744 92.687 118.744 79.952 120.163 79.952 120.163 85.408"></polygon>
            <path d="M130.972,89.073 L129.435,92.687 L127.881,92.687 L133.759,79.342 L139.485,92.687 L137.914,92.687 L136.411,89.073 L130.972,89.073 Z M133.725,82.655 L131.546,87.756 L135.854,87.756 L133.725,82.655 Z" id="Shape" fill="#000000"></path>
            <path d="M140.869,79.952 L143.267,79.952 C145.175,79.952 146.73,80.206 148.232,81.489 C149.685,82.739 150.343,84.445 150.343,86.337 C150.343,88.195 149.667,89.834 148.265,91.084 C146.745,92.436 145.224,92.688 143.232,92.688 L140.867,92.688 L140.867,79.952 L140.869,79.952 Z M143.318,91.371 C144.872,91.371 146.172,91.15 147.339,90.055 C148.386,89.075 148.926,87.741 148.926,86.321 C148.926,84.87 148.369,83.467 147.272,82.505 C146.106,81.476 144.823,81.273 143.319,81.273 L142.289,81.273 L142.289,91.375 L143.319,91.375 L143.319,91.371 L143.318,91.371 Z" id="Shape" fill="#000000"></path>
            <polygon id="Shape" fill="#000000" points="152.32 79.952 158.924 79.952 158.924 81.269 153.737 81.269 153.737 85.052 158.772 85.052 158.772 86.369 153.737 86.369 153.737 91.369 158.924 91.369 158.924 92.686 152.32 92.686"></polygon>
            <polygon id="Shape" fill="#000000" points="162.996 79.227 167.624 89.918 172.27 79.227 174.854 92.69 173.4 92.69 171.761 84.076 171.726 84.076 167.622 93.214 163.534 84.076 163.5 84.076 161.862 92.69 160.409 92.69"></polygon>
            <polygon id="Shape" fill="#000000" points="177.927 92.688 176.508 92.688 176.508 79.952 177.927 79.952"></polygon>
            <path d="M186.288,82.436 C185.781,81.557 185.173,81.05 184.092,81.05 C182.96,81.05 181.981,81.862 181.981,83.028 C181.981,84.126 183.114,84.632 183.975,85.02 L184.819,85.393 C186.475,86.12 187.877,86.946 187.877,88.973 C187.877,91.202 186.086,92.91 183.874,92.91 C181.83,92.91 180.31,91.593 179.905,89.616 L181.29,89.227 C181.476,90.528 182.474,91.591 183.841,91.591 C185.209,91.591 186.459,90.543 186.459,89.108 C186.459,87.623 185.293,87.116 184.11,86.576 L183.334,86.237 C181.849,85.561 180.563,84.8 180.563,82.977 C180.563,81 182.235,79.733 184.127,79.733 C185.546,79.733 186.745,80.461 187.421,81.711 L186.288,82.436 Z" id="Shape" fill="#000000"></path>
            <path d="M207.791,86.337 C207.791,90.003 204.784,92.908 201.152,92.908 C197.519,92.908 194.513,90.003 194.513,86.337 C194.513,82.69 197.519,79.733 201.152,79.733 C204.784,79.732 207.791,82.688 207.791,86.337 Z M195.932,86.32 C195.932,89.191 198.264,91.591 201.153,91.591 C204.042,91.591 206.373,89.194 206.373,86.32 C206.373,83.431 204.075,81.049 201.153,81.049 C198.231,81.049 195.932,83.432 195.932,86.32 Z" id="Shape" fill="#000000"></path>
            <path d="M211.134,92.688 L209.715,92.688 L209.715,79.952 L211.557,79.952 C213.971,79.952 216.218,80.594 216.218,83.466 C216.218,85.425 214.985,86.811 213.026,86.981 L217.081,92.69 L215.341,92.69 L211.489,87.098 L211.135,87.098 L211.134,92.688 L211.134,92.688 Z M211.134,85.848 L211.572,85.848 C213.176,85.848 214.799,85.543 214.799,83.569 C214.799,81.473 213.262,81.27 211.557,81.27 L211.134,81.27 L211.134,85.848 L211.134,85.848 Z" id="Shape" fill="#000000"></path>
            <path d="M218.87,79.952 L221.267,79.952 C223.175,79.952 224.73,80.206 226.234,81.489 C227.687,82.739 228.345,84.445 228.345,86.337 C228.345,88.195 227.668,89.834 226.267,91.084 C224.746,92.436 223.226,92.688 221.234,92.688 L218.87,92.688 L218.87,79.952 L218.87,79.952 Z M221.318,91.371 C222.873,91.371 224.172,91.15 225.339,90.055 C226.387,89.075 226.927,87.741 226.927,86.321 C226.927,84.87 226.369,83.467 225.272,82.505 C224.108,81.476 222.824,81.273 221.321,81.273 L220.291,81.273 L220.291,91.375 L221.319,91.375 L221.319,91.371 L221.318,91.371 Z" id="Shape" fill="#000000"></path>
            <path d="M230.322,79.952 L232.416,79.952 C234.73,79.952 236.673,80.797 236.673,83.398 C236.673,84.427 236.284,85.306 235.423,85.879 C236.944,86.251 237.839,87.619 237.839,89.14 C237.839,91.673 235.795,92.687 233.277,92.687 L230.322,92.687 L230.322,79.952 L230.322,79.952 Z M231.74,85.561 L232.281,85.561 C233.885,85.561 235.254,85.374 235.254,83.399 C235.254,81.473 234.038,81.27 232.298,81.27 L231.74,81.27 L231.74,85.561 L231.74,85.561 Z M231.74,91.371 L233.159,91.371 C234.747,91.371 236.42,90.982 236.42,89.04 C236.42,87.062 234.527,86.775 232.975,86.775 L231.742,86.775 L231.74,91.371 L231.74,91.371 Z" id="Shape" fill="#000000"></path>
            <path d="M252.55,86.337 C252.55,90.003 249.543,92.908 245.911,92.908 C242.279,92.908 239.271,90.003 239.271,86.337 C239.271,82.69 242.279,79.733 245.911,79.733 C249.543,79.733 252.55,82.688 252.55,86.337 Z M240.691,86.32 C240.691,89.191 243.023,91.591 245.912,91.591 C248.801,91.591 251.132,89.194 251.132,86.32 C251.132,83.431 248.834,81.049 245.912,81.049 C242.99,81.049 240.691,83.432 240.691,86.32 Z" id="Shape" fill="#000000"></path>
            <polygon id="Shape" fill="#000000" points="261.316 79.952 263.224 79.952 257.245 85.881 263.428 92.69 261.468 92.69 256.249 86.844 255.895 87.199 255.895 92.687 254.477 92.687 254.477 79.952 255.895 79.952 255.895 85.408"></polygon>
            <path d="M1.03980409e-15,67.754 C-0.006,67.957 0.326,68.079 0.65,68.198 C0.973,68.318 0.98,68.42 1.301,68.541 C6.633,69.65 13.702,69.415 19.422,69.314 C25.816,69.154 32.223,68.885 38.642,68.505 C52.126,67.797 65.613,67.191 79.099,66.581 C105.72,65.556 132.996,65.074 160.874,66.065 C168.602,66.376 176.652,66.711 184.357,67.127 C192.407,67.562 200.443,68.398 208.168,68.722 C209.191,68.777 210.926,67.744 208.254,67.291 L208.254,67.291 C201.926,66.127 195.24,65.458 188.204,64.782 C181.169,64.199 173.797,63.596 166.757,63.215 C152.667,62.566 138.552,62.199 124.411,62.267 C96.483,62.292 69.18,63.593 42.192,65.113 C35.102,65.546 27.682,65.976 20.61,66.302 C16.892,66.513 13.191,66.724 9.481,66.832 C7.798,66.847 6.114,66.854 4.427,66.967 L1.03980409e-15,67.754 Z" id="Shape" fill="#A64343"></path>
            <path d="M212.582,59.155 C214.139,49.516 218.037,39.259 225.109,33.377 C225.33,34.936 226.318,36.699 227.589,37.705 C220.722,42.505 215.775,50.785 212.58,59.152" id="Shape" fill="#152C4C"></path>
            <polygon id="Shape" fill="#A64343" points="263.029 5.354 262.818 4.64 262.438 3.969 262.154 3.777 261.993 3.76 261.662 3.839 261.309 4.081 260.244 5.433 258.443 7.436 256.359 9.248 254.041 10.916 250.674 12.951 248.891 13.888 245.202 15.671 235.917 19.838 232.464 21.522 229.256 23.396 226.266 25.464 223.502 27.691 222.195 28.872 220.939 30.093 218.621 32.637 217.537 33.972 215.532 36.739 213.751 39.63 212.176 42.652 211.48 44.196 210.827 45.785 209.684 49.013 209.193 50.684 208.359 54.055 207.743 57.501 207.328 61.048 207.199 62.83 207.177 63.616 209.596 67.814 209.809 64.325 210.127 60.827 210.588 57.426 211.207 54.098 212.02 50.824 212.512 49.219 213.673 45.992 215.122 42.796 216.834 39.582 217.807 37.996 219.479 35.671 220.749 34.228 222.195 32.904 223.833 31.714 225.697 30.711 226.712 30.284 226.744 31.077 226.854 31.822 227.012 32.522 227.236 33.193 227.521 33.827 227.857 34.399 228.648 35.437 229.622 36.295 230.162 36.642 231.288 37.217 232.512 37.597 233.15 37.709 234.438 37.771 235.092 37.724 236.361 37.485 237.589 37.021 238.175 36.706 239.285 35.896 239.793 35.403 240.703 34.263 241.436 32.859 241.719 32.065 242.168 32.445 243.503 33.431 244.824 34.196 245.713 34.577 247.001 34.99 247.843 35.165 248.669 35.241 249.466 35.241 250.246 35.165 250.99 35.021 251.707 34.817 252.408 34.526 253.046 34.196 253.661 33.782 254.234 33.32 254.759 32.811 255.648 31.652 256.333 30.315 256.764 28.853 256.887 28.075 256.938 27.259 256.92 26.438 256.826 25.593 256.654 24.733 256.396 23.859 255.631 22.109 255.109 21.217 255.605 20.963 257.016 20.077 258.303 18.993 259.48 17.739 260.197 16.832 260.831 15.859 261.422 14.844 261.913 13.778 262.343 12.679 262.693 11.553 262.965 10.421 263.139 9.263 263.218 8.102 263.218 6.94"></polygon>
            <path d="M216.035,22.172 C215.806,22.927 215.56,23.698 215.308,24.496 C213.998,28.712 212.533,33.401 211.445,38.822 C218.523,24.719 233.203,15.461 239.45,12.01 C242.812,10.186 246.857,4.931 248.158,1.94 C245.72,3.6 243.455,3.775 241.238,3.942 C239.087,4.105 237.043,4.258 235.092,5.922 L234.796,6.168 L234.568,5.857 C233.706,4.678 232.773,4.084 231.808,4.084 C229.277,4.084 226.697,8.107 225.452,12.079 C223.87,17.039 219.792,22.38 216.035,22.172 M210.917,41.716 L210.229,41.516 C211.321,34.831 213.081,29.232 214.629,24.285 C214.906,23.389 215.177,22.519 215.432,21.683 L215.52,21.389 L215.821,21.432 C219.196,21.888 223.223,16.705 224.768,11.865 C226.047,7.773 228.795,3.366 231.811,3.366 C232.927,3.366 233.975,3.959 234.919,5.133 C236.952,3.546 239.016,3.391 241.188,3.226 C243.567,3.045 246.028,2.856 248.647,0.668 L249.455,0 L249.226,1.021 C248.622,3.795 243.831,10.45 239.792,12.642 C233.24,16.267 217.292,26.351 210.917,41.716" id="Shape" fill="#152C4C"></path>
        </g>
    </g>
</svg>